<svg width="16" height="16" viewBox="0 0 16 16" fill="none" xmlns="http://www.w3.org/2000/svg">
<rect width="16" height="16" rx="8" fill="white"/>
<g clip-path="url(#clip0_241_6797)">
<path d="M7.998 5.3322C6.52901 5.3322 5.3302 6.53101 5.3302 8C5.3302 9.46899 6.52901 10.6678 7.998 10.6678C9.46699 10.6678 10.6658 9.46899 10.6658 8C10.6658 6.53101 9.46699 5.3322 7.998 5.3322ZM15.9994 8C15.9994 6.89525 16.0094 5.80051 15.9474 4.69777C15.8853 3.4169 15.5931 2.28014 14.6565 1.3435C13.7179 0.404868 12.5831 0.114672 11.3022 0.0526304C10.1975 -0.0094115 9.10274 0.000595291 8 0.000595291C6.89525 0.000595291 5.80051 -0.0094115 4.69777 0.0526304C3.4169 0.114672 2.28014 0.40687 1.3435 1.3435C0.404868 2.28214 0.114672 3.4169 0.0526304 4.69777C-0.0094115 5.80252 0.000595291 6.89725 0.000595291 8C0.000595291 9.10275 -0.0094115 10.1995 0.0526304 11.3022C0.114672 12.5831 0.40687 13.7199 1.3435 14.6565C2.28214 15.5951 3.4169 15.8853 4.69777 15.9474C5.80252 16.0094 6.89725 15.9994 8 15.9994C9.10474 15.9994 10.1995 16.0094 11.3022 15.9474C12.5831 15.8853 13.7199 15.5931 14.6565 14.6565C15.5951 13.7179 15.8853 12.5831 15.9474 11.3022C16.0114 10.1995 15.9994 9.10475 15.9994 8ZM7.998 12.1048C5.72646 12.1048 3.89323 10.2715 3.89323 8C3.89323 5.72847 5.72646 3.89523 7.998 3.89523C10.2695 3.89523 12.1028 5.72847 12.1028 8C12.1028 10.2715 10.2695 12.1048 7.998 12.1048ZM12.2709 4.68576C11.7405 4.68576 11.3122 4.25747 11.3122 3.72711C11.3122 3.19675 11.7405 2.76847 12.2709 2.76847C12.8012 2.76847 13.2295 3.19675 13.2295 3.72711C13.2297 3.85305 13.205 3.97778 13.1569 4.09416C13.1088 4.21054 13.0382 4.31628 12.9491 4.40533C12.8601 4.49438 12.7543 4.56499 12.6379 4.61311C12.5216 4.66123 12.3968 4.68592 12.2709 4.68576Z" fill="#494646"/>
</g>
<defs>
<clipPath id="clip0_241_6797">
<rect width="16" height="16" fill="white"/>
</clipPath>
</defs>
</svg>
